<svg width="856" height="893" viewBox="0 0 856 893" fill="none" xmlns="http://www.w3.org/2000/svg">
<path d="M315.007 311.42C401.865 239.093 493.12 188.805 570.425 165.955C609.079 154.529 644.222 149.97 673.573 152.929C702.921 155.887 726.444 166.356 741.93 184.954C757.416 203.552 763.453 228.582 761.048 257.98C758.643 287.382 747.796 321.118 729.56 357.064C693.088 428.954 627.107 509.593 540.248 581.92C453.389 654.246 362.135 704.534 284.83 727.385C246.176 738.81 211.033 743.369 181.682 740.411C152.334 737.452 128.811 726.983 113.325 708.385C97.8387 689.787 91.8022 664.757 94.2069 635.359C96.6119 605.957 107.459 572.221 125.695 536.275C162.167 464.385 228.148 383.746 315.007 311.42Z" stroke="#d03438"/>
<path d="M267.921 372.712C315.417 270.147 376.327 185.611 436.388 131.844C466.42 104.959 496.22 85.7833 524.009 75.8818C551.794 65.9813 577.534 65.363 599.495 75.5328C621.456 85.7025 637.634 105.732 648.057 133.326C658.48 160.923 663.132 196.054 662.055 236.346C659.901 316.93 634.831 418.062 587.335 520.627C539.838 623.193 478.929 707.728 418.867 761.496C388.836 788.38 359.035 807.556 331.247 817.458C303.461 827.358 277.721 827.976 255.76 817.807C233.799 807.637 217.621 787.607 207.199 760.013C196.775 732.416 192.123 697.286 193.2 656.993C195.355 576.409 220.425 475.277 267.921 372.712Z" stroke="#d03438"/>
</svg>
