<svg width="1440" height="553" viewBox="0 0 1440 553" fill="none" xmlns="http://www.w3.org/2000/svg">
<path d="M-1 46C-1 46 243 247.5 390 286C537 324.5 677 205 814 192.5C951 180 1117.5 233.5 1217 192.5C1316.5 151.5 1441.5 1 1441.5 1M-1 286C-1 286 165 286.5 317 351.5C469 416.5 616.5 401 748.5 388C880.5 375 942.5 343 1042 306.5C1141.5 270 1200.5 254 1282.5 245.5C1364.5 237 1441.5 192.5 1441.5 192.5" stroke="#F58031" stroke-opacity="0.3" stroke-width="2"/>
<path d="M-19.5 379.5C-19.5 379.5 243 505.5 390 544C537 582.5 677 463 814 450.5C951 438 1117.5 491.5 1217 450.5C1316.5 409.5 1441.5 259 1441.5 259" stroke="#F58031" stroke-opacity="0.3" stroke-width="2"/>
</svg>
